--40000LOG 07:12:07:037133900 Waiting for file /home/seluser/videos/vid_chrome_or_firefox_40000* to be created...
Won't start video recording due to VIDEO env var false
ffmpeg version 2.8.17-0ubuntu0.1 Copyright (c) 2000-2020 the FFmpeg developers
  built with gcc 5.4.0 (Ubuntu 5.4.0-6ubuntu1~16.04.12) 20160609
  configuration: --prefix=/usr --extra-version=0ubuntu0.1 --build-suffix=-ffmpeg --toolchain=hardened --libdir=/usr/lib/x86_64-linux-gnu --incdir=/usr/include/x86_64-linux-gnu --cc=cc --cxx=g++ --enable-gpl --enable-shared --disable-stripping --disable-decoder=libopenjpeg --disable-decoder=libschroedinger --enable-avresample --enable-avisynth --enable-gnutls --enable-ladspa --enable-libass --enable-libbluray --enable-libbs2b --enable-libcaca --enable-libcdio --enable-libflite --enable-libfontconfig --enable-libfreetype --enable-libfribidi --enable-libgme --enable-libgsm --enable-libmodplug --enable-libmp3lame --enable-libopenjpeg --enable-libopus --enable-libpulse --enable-librtmp --enable-libschroedinger --enable-libshine --enable-libsnappy --enable-libsoxr --enable-libspeex --enable-libssh --enable-libtheora --enable-libtwolame --enable-libvorbis --enable-libvpx --enable-libwavpack --enable-libwebp --enable-libx265 --enable-libxvid --enable-libzvbi --enable-openal --enable-opengl --enable-x11grab --enable-libdc1394 --enable-libiec61883 --enable-libzmq --enable-frei0r --enable-libx264 --enable-libopencv
  libavutil      54. 31.100 / 54. 31.100
  libavcodec     56. 60.100 / 56. 60.100
  libavformat    56. 40.101 / 56. 40.101
  libavdevice    56.  4.100 / 56.  4.100
  libavfilter     5. 40.101 /  5. 40.101
  libavresample   2.  1.  0 /  2.  1.  0
  libswscale      3.  1.101 /  3.  1.101
  libswresample   1.  2.101 /  1.  2.101
  libpostproc    53.  3.100 / 53.  3.100
Input #0, x11grab, from ':87.0':
  Duration: N/A, start: 1604466727.264826, bitrate: N/A
    Stream #0:0: Video: rawvideo (BGR[0] / 0x524742), bgr0, 1366x768, 10 fps, 10 tbr, 1000k tbn, 10 tbc
[libx264 @ 0x1dc0320] using cpu capabilities: MMX2 SSE2Fast SSSE3 SSE4.2 AVX FMA3 AVX2 LZCNT BMI2
[libx264 @ 0x1dc0320] profile Constrained Baseline, level 3.2
[libx264 @ 0x1dc0320] 264 - core 148 r2643 5c65704 - H.264/MPEG-4 AVC codec - Copyleft 2003-2015 - http://www.videolan.org/x264.html - options: cabac=0 ref=1 deblock=0:0:0 analyse=0:0 me=dia subme=0 psy=1 psy_rd=1.00:0.00 mixed_ref=0 me_range=16 chroma_me=1 trellis=0 8x8dct=0 cqm=0 deadzone=21,11 fast_pskip=1 chroma_qp_offset=0 threads=3 lookahead_threads=1 sliced_threads=0 nr=0 decimate=1 interlaced=0 bluray_compat=0 constrained_intra=0 bframes=0 weightp=0 keyint=250 keyint_min=10 scenecut=0 intra_refresh=0 rc=crf mbtree=0 crf=23.0 qcomp=0.60 qpmin=0 qpmax=69 qpstep=4 ip_ratio=1.40 aq=0
Output #0, matroska, to '/home/seluser/videos/vid_chrome_or_firefox_40000.mkv':
  Metadata:
    encoder         : Lavf56.40.101
    Stream #0:0: Video: h264 (libx264) (H264 / 0x34363248), yuv420p, 1366x768, q=-1--1, 10 fps, 1k tbn, 10 tbc
    Metadata:
      encoder         : Lavc56.60.100 libx264
Stream mapping:
  Stream #0:0 -> #0:0 (rawvideo (native) -> h264 (libx264))
Press [q] to stop, [?] for help
[swscaler @ 0x1dcbca0] Warning: data is not aligned! This can lead to a speedloss
frame=    9 fps=0.0 q=9.0 size=      27kB time=00:00:00.50 bitrate= 435.5kbits/s    
frame=   15 fps= 12 q=9.0 size=      28kB time=00:00:01.10 bitrate= 208.7kbits/s    
frame=   21 fps= 12 q=9.0 size=      29kB time=00:00:01.70 bitrate= 138.1kbits/s    
frame=   25 fps= 11 q=11.0 size=      29kB time=00:00:02.10 bitrate= 113.9kbits/s    
frame=   31 fps= 11 q=10.0 size=      55kB time=00:00:02.70 bitrate= 168.3kbits/s    
frame=   33 fps=9.7 q=9.0 size=      57kB time=00:00:02.90 bitrate= 160.0kbits/s    
frame=   43 fps= 11 q=9.0 size=      59kB time=00:00:03.90 bitrate= 124.4kbits/s    
frame=   49 fps= 11 q=13.0 size=      85kB time=00:00:04.50 bitrate= 155.5kbits/s    
frame=   54 fps= 11 q=12.0 size=      96kB time=00:00:05.00 bitrate= 157.8kbits/s    
frame=   59 fps= 10 q=9.0 size=     100kB time=00:00:05.50 bitrate= 149.6kbits/s    
frame=   65 fps= 11 q=9.0 size=     103kB time=00:00:06.10 bitrate= 138.1kbits/s    
frame=   70 fps= 10 q=9.0 size=     104kB time=00:00:06.60 bitrate= 129.1kbits/s    
frame=   75 fps= 10 q=9.0 size=     105kB time=00:00:07.10 bitrate= 121.6kbits/s    
frame=   79 fps= 10 q=11.0 size=     121kB time=00:00:07.50 bitrate= 132.1kbits/s    
frame=   85 fps= 10 q=9.0 size=     129kB time=00:00:08.10 bitrate= 130.5kbits/s    
frame=   92 fps= 10 q=9.0 size=     130kB time=00:00:08.80 bitrate= 121.2kbits/s    
frame=   99 fps= 10 q=9.0 size=     132kB time=00:00:09.50 bitrate= 113.9kbits/s    
frame=  104 fps= 10 q=9.0 size=     133kB time=00:00:10.00 bitrate= 109.0kbits/s    
frame=  109 fps= 10 q=9.0 size=     134kB time=00:00:10.50 bitrate= 104.7kbits/s    
frame=  114 fps= 10 q=9.0 size=     135kB time=00:00:11.00 bitrate= 100.9kbits/s    
frame=  120 fps= 10 q=9.0 size=     136kB time=00:00:11.60 bitrate=  96.2kbits/s    
frame=  125 fps= 10 q=9.0 size=     138kB time=00:00:12.10 bitrate=  93.2kbits/s    
frame=  130 fps= 10 q=9.0 size=     139kB time=00:00:12.60 bitrate=  90.1kbits/s    
frame=  136 fps= 10 q=9.0 size=     140kB time=00:00:13.20 bitrate=  86.9kbits/s    
frame=  141 fps= 10 q=9.0 size=     141kB time=00:00:13.70 bitrate=  84.4kbits/s    
frame=  147 fps= 10 q=9.0 size=     142kB time=00:00:14.30 bitrate=  81.4kbits/s    
frame=  153 fps= 10 q=9.0 size=     144kB time=00:00:14.90 bitrate=  79.1kbits/s    
frame=  158 fps= 10 q=14.0 size=     179kB time=00:00:15.40 bitrate=  95.5kbits/s    
frame=  163 fps= 10 q=13.0 size=     237kB time=00:00:15.90 bitrate= 122.1kbits/s    
frame=  169 fps= 10 q=9.0 size=     264kB time=00:00:16.50 bitrate= 130.8kbits/s    
frame=  174 fps= 10 q=10.0 size=     268kB time=00:00:17.00 bitrate= 129.1kbits/s    
frame=  180 fps= 10 q=11.0 size=     311kB time=00:00:17.60 bitrate= 144.9kbits/s    
frame=  185 fps= 10 q=9.0 size=     328kB time=00:00:18.10 bitrate= 148.5kbits/s    
frame=  190 fps= 10 q=12.0 size=     352kB time=00:00:18.60 bitrate= 154.8kbits/s    
frame=  195 fps= 10 q=11.0 size=     386kB time=00:00:19.10 bitrate= 165.4kbits/s    
frame=  201 fps= 10 q=12.0 size=     444kB time=00:00:19.70 bitrate= 184.7kbits/s    
frame=  207 fps= 10 q=9.0 size=     471kB time=00:00:20.30 bitrate= 190.2kbits/s    
frame=  212 fps= 10 q=9.0 size=     480kB time=00:00:20.80 bitrate= 188.9kbits/s    
frame=  217 fps= 10 q=9.0 size=     480kB time=00:00:21.30 bitrate= 184.6kbits/s    
frame=  222 fps= 10 q=21.0 size=     484kB time=00:00:21.80 bitrate= 182.0kbits/s    
frame=  227 fps= 10 q=11.0 size=     618kB time=00:00:22.30 bitrate= 226.9kbits/s    
frame=  233 fps= 10 q=9.0 size=     686kB time=00:00:22.90 bitrate= 245.5kbits/s    
frame=  238 fps= 10 q=9.0 size=     698kB time=00:00:23.40 bitrate= 244.2kbits/s    
frame=  243 fps= 10 q=9.0 size=     698kB time=00:00:23.90 bitrate= 239.3kbits/s    
frame=  249 fps= 10 q=9.0 size=     699kB time=00:00:24.50 bitrate= 233.7kbits/s    
frame=  255 fps= 10 q=19.0 size=     897kB time=00:00:25.10 bitrate= 292.8kbits/s    
frame=  260 fps= 10 q=11.0 size=     936kB time=00:00:25.60 bitrate= 299.6kbits/s    
frame=  266 fps= 10 q=9.0 size=     945kB time=00:00:26.20 bitrate= 295.6kbits/s    
frame=  272 fps= 10 q=9.0 size=     946kB time=00:00:26.80 bitrate= 289.1kbits/s    
frame=  277 fps= 10 q=9.0 size=     946kB time=00:00:27.30 bitrate= 283.9kbits/s    
frame=  283 fps= 10 q=9.0 size=     946kB time=00:00:27.90 bitrate= 277.9kbits/s    
frame=  288 fps= 10 q=9.0 size=     947kB time=00:00:28.40 bitrate= 273.1kbits/s    
frame=  293 fps= 10 q=9.0 size=     947kB time=00:00:28.90 bitrate= 268.4kbits/s    
frame=  299 fps= 10 q=9.0 size=     947kB time=00:00:29.50 bitrate= 263.0kbits/s    
frame=  305 fps= 10 q=9.0 size=     948kB time=00:00:30.10 bitrate= 257.9kbits/s    
frame=  310 fps= 10 q=9.0 size=     948kB time=00:00:30.60 bitrate= 253.7kbits/s    
frame=  316 fps= 10 q=9.0 size=     948kB time=00:00:31.20 bitrate= 248.9kbits/s    
frame=  322 fps= 10 q=9.0 size=     948kB time=00:00:31.80 bitrate= 244.3kbits/s    
frame=  327 fps= 10 q=9.0 size=     949kB time=00:00:32.30 bitrate= 240.6kbits/s    
frame=  332 fps= 10 q=9.0 size=     949kB time=00:00:32.80 bitrate= 237.0kbits/s    
frame=  338 fps= 10 q=9.0 size=     949kB time=00:00:33.40 bitrate= 232.8kbits/s    
frame=  343 fps= 10 q=9.0 size=     950kB time=00:00:33.90 bitrate= 229.5kbits/s    
frame=  348 fps= 10 q=9.0 size=     950kB time=00:00:34.40 bitrate= 226.2kbits/s    
frame=  354 fps= 10 q=9.0 size=     950kB time=00:00:35.00 bitrate= 222.4kbits/s    
frame=  359 fps= 10 q=9.0 size=     950kB time=00:00:35.50 bitrate= 219.3kbits/s    
frame=  365 fps= 10 q=9.0 size=     952kB time=00:00:36.10 bitrate= 216.0kbits/s    
frame=  371 fps= 10 q=11.0 size=     956kB time=00:00:36.70 bitrate= 213.4kbits/s    
frame=  377 fps= 10 q=12.0 size=     975kB time=00:00:37.30 bitrate= 214.1kbits/s    
frame=  382 fps= 10 q=10.0 size=     984kB time=00:00:37.80 bitrate= 213.3kbits/s    
frame=  387 fps= 10 q=9.0 size=     986kB time=00:00:38.30 bitrate= 210.9kbits/s    
frame=  393 fps= 10 q=11.0 size=    1018kB time=00:00:38.90 bitrate= 214.4kbits/s    
frame=  399 fps= 10 q=9.0 size=    1027kB time=00:00:39.50 bitrate= 213.0kbits/s    
frame=  405 fps= 10 q=10.0 size=    1027kB time=00:00:40.10 bitrate= 209.9kbits/s    
frame=  411 fps= 10 q=17.0 size=    1029kB time=00:00:40.70 bitrate= 207.0kbits/s    
frame=  417 fps= 10 q=16.0 size=    1198kB time=00:00:41.30 bitrate= 237.6kbits/s    
frame=  422 fps= 10 q=10.0 size=    1239kB time=00:00:41.80 bitrate= 242.9kbits/s    
frame=  427 fps= 10 q=9.0 size=    1252kB time=00:00:42.30 bitrate= 242.5kbits/s    
frame=  433 fps= 10 q=9.0 size=    1253kB time=00:00:42.90 bitrate= 239.3kbits/s    
frame=  438 fps= 10 q=9.0 size=    1254kB time=00:00:43.40 bitrate= 236.6kbits/s    
frame=  444 fps= 10 q=9.0 size=    1254kB time=00:00:44.00 bitrate= 233.5kbits/s    
frame=  450 fps= 10 q=9.0 size=    1255kB time=00:00:44.60 bitrate= 230.5kbits/s    
frame=  455 fps= 10 q=9.0 size=    1255kB time=00:00:45.10 bitrate= 228.0kbits/s    
frame=  461 fps= 10 q=9.0 size=    1256kB time=00:00:45.70 bitrate= 225.2kbits/s    
frame=  467 fps= 10 q=9.0 size=    1257kB time=00:00:46.30 bitrate= 222.4kbits/s    
frame=  472 fps= 10 q=9.0 size=    1257kB time=00:00:46.80 bitrate= 220.1kbits/s    
frame=  477 fps= 10 q=9.0 size=    1258kB time=00:00:47.30 bitrate= 217.8kbits/s    
frame=  482 fps= 10 q=9.0 size=    1258kB time=00:00:47.80 bitrate= 215.6kbits/s    
frame=  488 fps= 10 q=9.0 size=    1259kB time=00:00:48.40 bitrate= 213.1kbits/s    
frame=  494 fps= 10 q=9.0 size=    1260kB time=00:00:49.00 bitrate= 210.6kbits/s    
frame=  500 fps= 10 q=9.0 size=    1260kB time=00:00:49.60 bitrate= 208.1kbits/s    
frame=  506 fps= 10 q=14.0 size=    1387kB time=00:00:50.20 bitrate= 226.3kbits/s    
frame=  512 fps= 10 q=15.0 size=    1387kB time=00:00:50.80 bitrate= 223.6kbits/s    
frame=  517 fps= 10 q=11.0 size=    1417kB time=00:00:51.30 bitrate= 226.2kbits/s    
frame=  523 fps= 10 q=9.0 size=    1425kB time=00:00:51.90 bitrate= 224.9kbits/s    
frame=  529 fps= 10 q=9.0 size=    1425kB time=00:00:52.50 bitrate= 222.4kbits/s    
--40000LOG 07:13:00:629222200 Trapped SIGTERM or SIGINT so shutting down ffmpeg gracefully...
--40000LOG 07:13:00:640752000 Will kill VID_TOOL_PID=508 ...
frame=  535 fps= 10 q=9.0 size=    1426kB time=00:00:53.10 bitrate= 219.9kbits/s    
frame=  535 fps= 10 q=-1.0 Lsize=    1426kB time=00:00:53.50 bitrate= 218.3kbits/s    
video:1421kB audio:0kB subtitle:0kB other streams:0kB global headers:0kB muxing overhead: 0.305580%
[libx264 @ 0x1dc0320] frame I:3     Avg QP:11.00  size:115390
[libx264 @ 0x1dc0320] frame P:532   Avg QP:10.04  size:  2084
[libx264 @ 0x1dc0320] mb I  I16..4: 100.0%  0.0%  0.0%
[libx264 @ 0x1dc0320] mb P  I16..4:  1.7%  0.0%  0.0%  P16..4:  1.9%  0.0%  0.0%  0.0%  0.0%    skip:96.3%
[libx264 @ 0x1dc0320] coded y,uvDC,uvAC intra: 16.6% 10.7% 10.0% inter: 0.8% 0.9% 0.5%
[libx264 @ 0x1dc0320] i16 v,h,dc,p: 73% 25%  2%  1%
[libx264 @ 0x1dc0320] i8c dc,h,v,p: 81% 15%  3%  1%
[libx264 @ 0x1dc0320] kb/s:217.57
Exiting normally, received signal 2.
--40000LOG 07:13:01:674356300 Tried to kill -SIGTERM VID_TOOL_PID=508
--40000LOG 07:13:01:712658600 Waiting up to 6s for VID_TOOL_PID=508 to end with SIGTERM...
--40000LOG 07:13:01:727879300 wait_pid successfully managed to SIGTERM:VID_TOOL_PID=508 within less than 6s
--40000LOG 07:13:01:738687800 Will try to fix the videos...
--40000LOG 07:13:02:289606600 Fixing perms for /home/seluser/videos/vid_chrome_or_firefox_40000.mkv*
--40000LOG 07:13:02:312225700 Changing video encoding from mkv to mp4...
--40000LOG 07:13:07:396973900 Conversion from mkv to mp4 succeeded!
--40000LOG 07:13:07:412127900 Cleaning up /home/seluser/videos/vid_chrome_or_firefox_40000.mkv ...
--40000LOG 07:13:07:440164900 Optimizing /home/seluser/videos/vid_chrome_or_firefox_40000.mp4 for HTTP streaming...
--40000LOG 07:13:07:518089400 Succeeded to mp4box_retry.sh within 8s
--40000LOG 07:13:07:537233900 ffmpeg shutdown complete.
